<?xml version="1.0" encoding="UTF-8"?>
<!DOCTYPE svg PUBLIC "-//W3C//DTD SVG 1.1//EN" "http://www.w3.org/Graphics/SVG/1.1/DTD/svg11.dtd">
<svg xmlns="http://www.w3.org/2000/svg" version="1.1" width="512px" height="500px" style="shape-rendering:geometricPrecision; text-rendering:geometricPrecision; image-rendering:optimizeQuality; fill-rule:evenodd; clip-rule:evenodd" xmlns:xlink="http://www.w3.org/1999/xlink">
<g><path style="opacity:0.937" fill="#77c419" d="M 268.5,-0.5 C 282.167,-0.5 295.833,-0.5 309.5,-0.5C 388.661,9.51834 447.828,49.185 487,118.5C 500.154,144.472 508.321,171.805 511.5,200.5C 511.5,214.5 511.5,228.5 511.5,242.5C 501.911,319.367 463.911,377.367 397.5,416.5C 394.856,415.856 393.189,414.189 392.5,411.5C 473.187,362.471 510.353,290.471 504,195.5C 491.685,115.54 449.185,58.0405 376.5,23C 290.711,-10.7006 212.711,1.96609 142.5,61C 123.959,78.2927 108.959,98.126 97.5,120.5C 95.326,120.25 93.6594,119.25 92.5,117.5C 119.551,67.2941 159.884,32.1275 213.5,12C 231.548,5.96067 249.881,1.794 268.5,-0.5 Z"/></g>
<g><path style="opacity:1" fill="#edfea9" d="M 392.5,411.5 C 384.941,403.395 377.608,395.062 370.5,386.5C 428.966,355.618 462.799,307.284 472,241.5C 476.953,162.898 446.119,103.065 379.5,62C 316.757,29.5913 254.757,30.9246 193.5,66C 159.805,87.5711 135.139,116.738 119.5,153.5C 115.419,140.339 108.085,129.339 97.5,120.5C 108.959,98.126 123.959,78.2927 142.5,61C 212.711,1.96609 290.711,-10.7006 376.5,23C 449.185,58.0405 491.685,115.54 504,195.5C 510.353,290.471 473.187,362.471 392.5,411.5 Z"/></g>
<g><path style="opacity:1" fill="#aad403" d="M 370.5,386.5 C 362.465,379.466 355.132,371.799 348.5,363.5C 339.205,343.577 329.372,323.91 319,304.5C 310.779,285.391 303.113,266.058 296,246.5C 294.545,243.088 292.712,239.921 290.5,237C 287.196,235.958 285.029,237.125 284,240.5C 277.337,254.999 271.17,269.666 265.5,284.5C 262.216,282.883 259.549,280.55 257.5,277.5C 262.855,264.457 269.021,251.79 276,239.5C 276.089,235.29 274.256,234.457 270.5,237C 259.31,244.759 247.976,252.259 236.5,259.5C 233.553,258.219 231.219,256.219 229.5,253.5C 242.019,245.828 254.686,238.328 267.5,231C 269.037,229.89 269.703,228.39 269.5,226.5C 246.938,227.469 224.605,229.469 202.5,232.5C 198.183,229.514 194.183,226.18 190.5,222.5C 213.135,220.89 235.802,219.723 258.5,219C 260.891,218.713 263.224,218.213 265.5,217.5C 266.725,215.157 266.059,213.323 263.5,212C 227.824,191.835 193.158,170.168 159.5,147C 150.954,141.651 143.12,142.484 136,149.5C 130.841,155.817 126.174,162.484 122,169.5C 121.814,172.036 121.314,174.369 120.5,176.5C 120.646,168.804 120.313,161.138 119.5,153.5C 135.139,116.738 159.805,87.5711 193.5,66C 254.757,30.9246 316.757,29.5913 379.5,62C 446.119,103.065 476.953,162.898 472,241.5C 462.799,307.284 428.966,355.618 370.5,386.5 Z"/></g>
<g><path style="opacity:1" fill="#a1fe1f" d="M 255.5,48.5 C 268.678,47.8043 281.678,48.971 294.5,52C 303.317,55.1333 306.817,61.2999 305,70.5C 298.019,113.683 292.019,157.017 287,200.5C 285.172,202.807 283.506,202.474 282,199.5C 263.134,158.768 243.467,118.435 223,78.5C 221.271,71.7948 223.105,66.2948 228.5,62C 237.034,56.3994 246.034,51.8994 255.5,48.5 Z"/></g>
<g><path style="opacity:1" fill="#a1fe1f" d="M 328.5,58.5 C 350.441,57.7298 370.108,63.8965 387.5,77C 394.961,82.7625 398.128,90.2625 397,99.5C 396.529,101.246 395.862,102.913 395,104.5C 362.542,135.62 331.542,167.954 302,201.5C 300.416,202.861 298.582,203.528 296.5,203.5C 303.242,159.899 309.742,116.232 316,72.5C 317.926,65.7448 322.093,61.0781 328.5,58.5 Z"/></g>
<g><path style="opacity:1" fill="#d34241" d="M 86.5,115.5 C 86.5,117.833 86.5,120.167 86.5,122.5C 78.6017,121.248 70.935,122.081 63.5,125C 61.3834,126.731 59.8834,128.898 59,131.5C 59.082,136.495 59.082,141.495 59,146.5C 55.05,149.265 52.55,152.932 51.5,157.5C 52.8346,162.669 54.6679,167.669 57,172.5C 58.0429,175.757 58.5429,179.09 58.5,182.5C 52.8525,179.018 48.3525,174.351 45,168.5C 38.4847,155.617 34.818,141.951 34,127.5C 33.5932,116.162 33.0932,104.829 32.5,93.5C 32.3045,87.6747 33.1378,82.008 35,76.5C 37.0907,75.5004 38.7574,76.1671 40,78.5C 41.587,83.7679 42.9203,89.1013 44,94.5C 48.2748,101.099 54.1081,105.932 61.5,109C 69.6985,111.739 78.0318,113.906 86.5,115.5 Z"/></g>
<g><path style="opacity:1" fill="#a1fe1f" d="M 193.5,76.5 C 202.646,74.9949 209.813,77.9949 215,85.5C 234.49,124.481 254.49,163.147 275,201.5C 275.495,203.473 275.662,205.473 275.5,207.5C 274.127,207.657 272.793,207.49 271.5,207C 235.336,183.75 199.002,160.75 162.5,138C 151.877,127.94 150.71,116.773 159,104.5C 168.611,92.7105 180.111,83.3772 193.5,76.5 Z"/></g>
<g><path style="opacity:1" fill="#a1fe1f" d="M 406.5,107.5 C 412.851,107.228 418.518,109.062 423.5,113C 434.013,121.53 440.847,132.363 444,145.5C 444.903,151.281 444.57,156.947 443,162.5C 398.773,178.465 354.607,194.632 310.5,211C 308.421,211.808 306.421,211.641 304.5,210.5C 337.853,175.481 371.853,141.147 406.5,107.5 Z"/></g>
<g><path style="opacity:0.999" fill="#334449" d="M 86.5,115.5 C 88.5786,115.971 90.5786,116.637 92.5,117.5C 93.6594,119.25 95.326,120.25 97.5,120.5C 108.085,129.339 115.419,140.339 119.5,153.5C 120.313,161.138 120.646,168.804 120.5,176.5C 120.5,177.5 120.5,178.5 120.5,179.5C 116.731,177.827 113.231,178.16 110,180.5C 110.09,185.278 110.923,189.945 112.5,194.5C 111.167,195.5 109.833,196.5 108.5,197.5C 103.353,199.429 98.0196,199.929 92.5,199C 85.9587,197.394 79.6254,195.227 73.5,192.5C 72.3406,190.75 70.674,189.75 68.5,189.5C 64.7792,187.646 61.4459,185.313 58.5,182.5C 58.5429,179.09 58.0429,175.757 57,172.5C 54.6679,167.669 52.8346,162.669 51.5,157.5C 52.55,152.932 55.05,149.265 59,146.5C 59.082,141.495 59.082,136.495 59,131.5C 59.8834,128.898 61.3834,126.731 63.5,125C 70.935,122.081 78.6017,121.248 86.5,122.5C 86.5,120.167 86.5,117.833 86.5,115.5 Z"/></g>
<g><path style="opacity:1" fill="#a1fe1f" d="M 190.5,222.5 C 176.891,213.02 163.225,203.52 149.5,194C 140.364,188.099 130.698,183.266 120.5,179.5C 120.5,178.5 120.5,177.5 120.5,176.5C 121.314,174.369 121.814,172.036 122,169.5C 126.174,162.484 130.841,155.817 136,149.5C 143.12,142.484 150.954,141.651 159.5,147C 193.158,170.168 227.824,191.835 263.5,212C 266.059,213.323 266.725,215.157 265.5,217.5C 263.224,218.213 260.891,218.713 258.5,219C 235.802,219.723 213.135,220.89 190.5,222.5 Z"/></g>
<g><path style="opacity:1" fill="#a1fe1f" d="M 439.5,174.5 C 448.433,172.857 454.599,176.191 458,184.5C 464.908,206.387 465.241,228.387 459,250.5C 457.296,259.036 452.13,262.703 443.5,261.5C 439.764,261.472 436.097,260.972 432.5,260C 394.18,247.421 355.513,236.087 316.5,226C 313.692,225.402 311.192,224.235 309,222.5C 308.135,220.112 308.968,218.612 311.5,218C 354.853,205.161 397.519,190.661 439.5,174.5 Z"/></g>
<g><path style="opacity:0.998" fill="#e79841" d="M 120.5,179.5 C 130.698,183.266 140.364,188.099 149.5,194C 163.225,203.52 176.891,213.02 190.5,222.5C 194.183,226.18 198.183,229.514 202.5,232.5C 211.349,239.75 220.349,246.75 229.5,253.5C 231.219,256.219 233.553,258.219 236.5,259.5C 242.901,266.2 249.901,272.2 257.5,277.5C 259.549,280.55 262.216,282.883 265.5,284.5C 293.443,310.441 321.11,336.774 348.5,363.5C 355.132,371.799 362.465,379.466 370.5,386.5C 377.608,395.062 384.941,403.395 392.5,411.5C 393.189,414.189 394.856,415.856 397.5,416.5C 405.48,426.45 412.98,436.783 420,447.5C 422.274,451.714 424.274,456.047 426,460.5C 427.471,469.013 423.971,471.846 415.5,469C 394.717,459.781 375.383,448.281 357.5,434.5C 355.766,431.8 353.432,429.8 350.5,428.5C 339.858,420.197 329.191,411.864 318.5,403.5C 314.392,399.606 310.059,395.939 305.5,392.5C 283.871,374.206 262.537,355.539 241.5,336.5C 239.12,333.119 236.12,330.453 232.5,328.5C 219.469,314.469 205.802,301.135 191.5,288.5C 189.157,285.793 186.823,283.126 184.5,280.5C 170.464,265.799 156.798,250.799 143.5,235.5C 140.49,232.126 137.49,228.792 134.5,225.5C 128.493,217.161 122.493,208.828 116.5,200.5C 116.155,197.802 114.822,195.802 112.5,194.5C 110.923,189.945 110.09,185.278 110,180.5C 113.231,178.16 116.731,177.827 120.5,179.5 Z"/></g>
<g><path style="opacity:0.92" fill="#77c31a" d="M 68.5,189.5 C 70.674,189.75 72.3406,190.75 73.5,192.5C 71.7311,214.922 72.3977,237.255 75.5,259.5C 73.3024,259.125 71.3024,258.458 69.5,257.5C 65.902,234.933 65.5686,212.266 68.5,189.5 Z"/></g>
<g><path style="opacity:1" fill="#edfea8" d="M 73.5,192.5 C 79.6254,195.227 85.9587,197.394 92.5,199C 98.0196,199.929 103.353,199.429 108.5,197.5C 104.905,227.478 107.905,256.811 117.5,285.5C 105.167,278.167 92.8333,270.833 80.5,263.5C 79.0158,261.926 77.3492,260.593 75.5,259.5C 72.3977,237.255 71.7311,214.922 73.5,192.5 Z"/></g>
<g><path style="opacity:1" fill="#abd507" d="M 112.5,194.5 C 114.822,195.802 116.155,197.802 116.5,200.5C 116.688,207.04 117.854,213.373 120,219.5C 123.506,224.669 128.339,226.669 134.5,225.5C 137.49,228.792 140.49,232.126 143.5,235.5C 135.815,234.736 128.481,235.902 121.5,239C 119.951,240.214 118.785,241.714 118,243.5C 116.495,262.141 120.995,279.141 131.5,294.5C 126.522,292.009 121.855,289.009 117.5,285.5C 107.905,256.811 104.905,227.478 108.5,197.5C 109.833,196.5 111.167,195.5 112.5,194.5 Z"/></g>
<g><path style="opacity:1" fill="#a3fb20" d="M 116.5,200.5 C 122.493,208.828 128.493,217.161 134.5,225.5C 128.339,226.669 123.506,224.669 120,219.5C 117.854,213.373 116.688,207.04 116.5,200.5 Z"/></g>
<g><path style="opacity:1" fill="#ecfea6" d="M 292.5,201.5 C 293.321,204.641 293.821,207.975 294,211.5C 296.316,212.367 298.316,211.701 300,209.5C 299.393,211.582 298.56,213.749 297.5,216C 297.645,216.772 297.978,217.439 298.5,218C 300.167,218.333 301.833,218.667 303.5,219C 299.531,222.47 300.198,225.137 305.5,227C 302.974,226.368 300.474,226.535 298,227.5C 297.578,230.236 297.578,232.902 298,235.5C 293.288,227.727 288.288,227.727 283,235.5C 283.335,231.882 281.835,229.548 278.5,228.5C 279.844,225.021 278.511,223.188 274.5,223C 275.872,222.598 277.205,222.098 278.5,221.5C 279.583,220.635 279.749,219.635 279,218.5C 277.442,216.641 275.609,215.141 273.5,214C 276.098,214.422 278.764,214.422 281.5,214C 282.271,211.56 282.438,209.06 282,206.5C 288.995,213.757 292.495,212.09 292.5,201.5 Z"/></g>
<g><path style="opacity:1" fill="#a1fd1f" d="M 229.5,253.5 C 220.349,246.75 211.349,239.75 202.5,232.5C 224.605,229.469 246.938,227.469 269.5,226.5C 269.703,228.39 269.037,229.89 267.5,231C 254.686,238.328 242.019,245.828 229.5,253.5 Z"/></g>
<g><path style="opacity:1" fill="#a1fe1f" d="M 304.5,233.5 C 346.312,247.159 388.312,260.326 430.5,273C 441.677,277.52 445.844,285.687 443,297.5C 435.427,316.736 424.26,333.569 409.5,348C 400.379,354.895 390.379,360.228 379.5,364C 371.571,365.245 365.071,362.745 360,356.5C 338.549,317.764 319.382,277.931 302.5,237C 302.978,235.697 303.645,234.531 304.5,233.5 Z"/></g>
<g><path style="opacity:1" fill="#a1fe1f" d="M 143.5,235.5 C 156.798,250.799 170.464,265.799 184.5,280.5C 184.719,281.675 184.386,282.675 183.5,283.5C 174.697,289.137 166.03,294.971 157.5,301C 153.747,302.989 149.747,303.822 145.5,303.5C 140.485,300.996 135.819,297.996 131.5,294.5C 120.995,279.141 116.495,262.141 118,243.5C 118.785,241.714 119.951,240.214 121.5,239C 128.481,235.902 135.815,234.736 143.5,235.5 Z"/></g>
<g><path style="opacity:1" fill="#a1fd1f" d="M 257.5,277.5 C 249.901,272.2 242.901,266.2 236.5,259.5C 247.976,252.259 259.31,244.759 270.5,237C 274.256,234.457 276.089,235.29 276,239.5C 269.021,251.79 262.855,264.457 257.5,277.5 Z"/></g>
<g><path style="opacity:1" fill="#a1fe1f" d="M 348.5,363.5 C 321.11,336.774 293.443,310.441 265.5,284.5C 271.17,269.666 277.337,254.999 284,240.5C 285.029,237.125 287.196,235.958 290.5,237C 292.712,239.921 294.545,243.088 296,246.5C 303.113,266.058 310.779,285.391 319,304.5C 329.372,323.91 339.205,343.577 348.5,363.5 Z"/></g>
<g><path style="opacity:0.989" fill="#151410" d="M -0.5,243.5 C 7.5,245.167 15.5,246.833 23.5,248.5C 21.1136,253.977 17.7803,258.643 13.5,262.5C 13.573,260.973 12.9063,259.973 11.5,259.5C 10.5,259.167 9.83333,258.5 9.5,257.5C 9.57298,255.973 8.90632,254.973 7.5,254.5C 4.83333,251.833 2.16667,249.167 -0.5,246.5C -0.5,245.5 -0.5,244.5 -0.5,243.5 Z"/></g>
<g><path style="opacity:0.985" fill="#f2d69e" d="M 23.5,248.5 C 38.8401,251.501 54.1734,254.501 69.5,257.5C 71.3024,258.458 73.3024,259.125 75.5,259.5C 77.3492,260.593 79.0158,261.926 80.5,263.5C 79.1516,264.601 77.6516,265.601 76,266.5C 75.9006,269.999 76.734,273.332 78.5,276.5C 78.2528,277.713 77.5862,278.38 76.5,278.5C 61.9592,275.341 57.6259,280.341 63.5,293.5C 63.7135,295.144 63.3802,296.644 62.5,298C 58.9448,299.043 55.4448,300.209 52,301.5C 51.3333,302.5 51.3333,303.5 52,304.5C 53.3756,305.705 54.5423,307.038 55.5,308.5C 51.0713,307.257 47.2379,304.923 44,301.5C 33.6187,288.625 23.452,275.625 13.5,262.5C 17.7803,258.643 21.1136,253.977 23.5,248.5 Z"/></g>
<g><path style="opacity:0.004" fill="#c9bda3" d="M 7.5,254.5 C 8.90632,254.973 9.57298,255.973 9.5,257.5C 8.09368,257.027 7.42702,256.027 7.5,254.5 Z"/></g>
<g><path style="opacity:0.004" fill="#cabda4" d="M 11.5,259.5 C 12.9063,259.973 13.573,260.973 13.5,262.5C 12.0937,262.027 11.427,261.027 11.5,259.5 Z"/></g>
<g><path style="opacity:1" fill="#fed732" d="M 80.5,263.5 C 92.8333,270.833 105.167,278.167 117.5,285.5C 121.855,289.009 126.522,292.009 131.5,294.5C 135.819,297.996 140.485,300.996 145.5,303.5C 149.323,306.916 153.657,309.582 158.5,311.5C 178.79,325.318 199.457,338.652 220.5,351.5C 223.494,354 226.827,356 230.5,357.5C 249.96,370.402 269.627,383.069 289.5,395.5C 294.233,398.89 299.233,401.89 304.5,404.5C 316.661,413.081 328.994,421.414 341.5,429.5C 338.734,434.045 335.734,438.378 332.5,442.5C 247.167,387.833 161.833,333.167 76.5,278.5C 77.5862,278.38 78.2528,277.713 78.5,276.5C 76.734,273.332 75.9006,269.999 76,266.5C 77.6516,265.601 79.1516,264.601 80.5,263.5 Z"/></g>
<g><path style="opacity:1" fill="#f0c61a" d="M 76.5,278.5 C 161.833,333.167 247.167,387.833 332.5,442.5C 329.43,448.304 326.097,453.97 322.5,459.5C 239.556,407.022 156.556,354.522 73.5,302C 69.4462,299.837 66.1128,297.003 63.5,293.5C 57.6259,280.341 61.9592,275.341 76.5,278.5 Z"/></g>
<g><path style="opacity:1" fill="#aad401" d="M 184.5,280.5 C 186.823,283.126 189.157,285.793 191.5,288.5C 180.712,296.4 169.712,304.067 158.5,311.5C 153.657,309.582 149.323,306.916 145.5,303.5C 149.747,303.822 153.747,302.989 157.5,301C 166.03,294.971 174.697,289.137 183.5,283.5C 184.386,282.675 184.719,281.675 184.5,280.5 Z"/></g>
<g><path style="opacity:1" fill="#a1fe20" d="M 191.5,288.5 C 205.802,301.135 219.469,314.469 232.5,328.5C 229.228,336.717 225.228,344.384 220.5,351.5C 199.457,338.652 178.79,325.318 158.5,311.5C 169.712,304.067 180.712,296.4 191.5,288.5 Z"/></g>
<g><path style="opacity:0.995" fill="#cda917" d="M 63.5,293.5 C 66.1128,297.003 69.4462,299.837 73.5,302C 156.556,354.522 239.556,407.022 322.5,459.5C 319.5,464.167 316.5,468.833 313.5,473.5C 297.833,463.5 282.167,453.5 266.5,443.5C 262.181,440.004 257.515,437.004 252.5,434.5C 205.678,404.253 158.678,374.253 111.5,344.5C 107.145,340.991 102.478,337.991 97.5,335.5C 83.1521,326.996 69.1521,317.996 55.5,308.5C 54.5423,307.038 53.3756,305.705 52,304.5C 51.3333,303.5 51.3333,302.5 52,301.5C 55.4448,300.209 58.9448,299.043 62.5,298C 63.3802,296.644 63.7135,295.144 63.5,293.5 Z"/></g>
<g><path style="opacity:1" fill="#aad401" d="M 232.5,328.5 C 236.12,330.453 239.12,333.119 241.5,336.5C 237.07,343.024 233.403,350.024 230.5,357.5C 226.827,356 223.494,354 220.5,351.5C 225.228,344.384 229.228,336.717 232.5,328.5 Z"/></g>
<g><path style="opacity:1" fill="#a2fd20" d="M 241.5,336.5 C 262.537,355.539 283.871,374.206 305.5,392.5C 305.423,393.75 304.756,394.583 303.5,395C 298.845,395.499 294.179,395.666 289.5,395.5C 269.627,383.069 249.96,370.402 230.5,357.5C 233.403,350.024 237.07,343.024 241.5,336.5 Z"/></g>
<g><path style="opacity:0.939" fill="#77c418" d="M 97.5,335.5 C 102.478,337.991 107.145,340.991 111.5,344.5C 141.344,386.951 181.344,415.451 231.5,430C 238.421,431.981 245.421,433.481 252.5,434.5C 257.515,437.004 262.181,440.004 266.5,443.5C 192.84,434.098 136.507,398.098 97.5,335.5 Z"/></g>
<g><path style="opacity:1" fill="#ecfda7" d="M 111.5,344.5 C 158.678,374.253 205.678,404.253 252.5,434.5C 245.421,433.481 238.421,431.981 231.5,430C 181.344,415.451 141.344,386.951 111.5,344.5 Z"/></g>
<g><path style="opacity:1" fill="#add50a" d="M 305.5,392.5 C 310.059,395.939 314.392,399.606 318.5,403.5C 313.807,403.54 309.141,403.873 304.5,404.5C 299.233,401.89 294.233,398.89 289.5,395.5C 294.179,395.666 298.845,395.499 303.5,395C 304.756,394.583 305.423,393.75 305.5,392.5 Z"/></g>
<g><path style="opacity:1" fill="#edfca6" d="M 318.5,403.5 C 329.191,411.864 339.858,420.197 350.5,428.5C 348.302,428.875 346.302,429.542 344.5,430.5C 343.609,429.89 342.609,429.557 341.5,429.5C 328.994,421.414 316.661,413.081 304.5,404.5C 309.141,403.873 313.807,403.54 318.5,403.5 Z"/></g>
<g><path style="opacity:1" fill="#b6b5b2" d="M 341.5,429.5 C 342.609,429.557 343.609,429.89 344.5,430.5C 345.167,431.167 345.833,431.833 346.5,432.5C 337.167,447.167 327.833,461.833 318.5,476.5C 316.668,475.752 315.001,474.752 313.5,473.5C 316.5,468.833 319.5,464.167 322.5,459.5C 326.097,453.97 329.43,448.304 332.5,442.5C 335.734,438.378 338.734,434.045 341.5,429.5 Z"/></g>
<g><path style="opacity:0.918" fill="#7ec322" d="M 350.5,428.5 C 353.432,429.8 355.766,431.8 357.5,434.5C 356.041,434.433 354.708,434.766 353.5,435.5C 351.216,435.025 349.216,434.025 347.5,432.5C 347.167,432.5 346.833,432.5 346.5,432.5C 345.833,431.833 345.167,431.167 344.5,430.5C 346.302,429.542 348.302,428.875 350.5,428.5 Z"/></g>
<g><path style="opacity:1" fill="#b5b4b4" d="M 347.5,432.5 C 349.216,434.025 351.216,435.025 353.5,435.5C 354.167,436.167 354.833,436.833 355.5,437.5C 345.833,452.167 336.167,466.833 326.5,481.5C 323.797,479.819 321.131,478.153 318.5,476.5C 319.496,476.586 320.329,476.252 321,475.5C 330.085,461.264 338.919,446.931 347.5,432.5 Z"/></g>
<g><path style="opacity:1" fill="#b7b4b5" d="M 357.5,438.5 C 358.71,438.932 359.71,439.599 360.5,440.5C 351.752,455.666 342.752,470.666 333.5,485.5C 331.326,485.25 329.659,484.25 328.5,482.5C 337.474,467.228 347.14,452.561 357.5,438.5 Z"/></g>
<g><path style="opacity:0.976" fill="#fe8ca6" d="M 360.5,440.5 C 369.248,445.294 377.415,450.96 385,457.5C 387.835,463.019 388.169,468.686 386,474.5C 383,479.5 380,484.5 377,489.5C 374.262,493.74 370.762,497.074 366.5,499.5C 362.5,499.5 358.5,499.5 354.5,499.5C 347.328,495.081 340.328,490.415 333.5,485.5C 342.752,470.666 351.752,455.666 360.5,440.5 Z"/></g>
<g><path style="opacity:1" fill="#747474" d="M 346.5,432.5 C 346.833,432.5 347.167,432.5 347.5,432.5C 338.919,446.931 330.085,461.264 321,475.5C 320.329,476.252 319.496,476.586 318.5,476.5C 327.833,461.833 337.167,447.167 346.5,432.5 Z"/></g>
<g><path style="opacity:1" fill="#757474" d="M 355.5,437.5 C 356.492,437.328 357.158,437.662 357.5,438.5C 347.14,452.561 337.474,467.228 328.5,482.5C 327.508,482.672 326.842,482.338 326.5,481.5C 336.167,466.833 345.833,452.167 355.5,437.5 Z"/></g>
</svg>
